<svg width="770" height="258" viewBox="0 0 770 258" fill="none" xmlns="http://www.w3.org/2000/svg">
<path d="M94.9427 158.316C95.5842 158.534 96.3132 159.808 96.719 160.395C98.659 163.2 100.848 165.879 103.287 168.262C113.736 178.529 127.836 184.225 142.484 184.097C156.604 183.883 170.792 178.367 180.695 168.184C180.495 171.668 180.592 176.129 180.59 179.691L180.583 199.337C180.58 216.64 180.419 234.263 180.659 251.546C178.463 252.446 174.459 253.425 172.113 253.976C160.066 256.903 147.654 258.034 135.278 257.333C134.592 257.218 133.377 257.221 132.603 257.168C130.827 257.042 129.053 256.879 127.283 256.677C122.333 256.124 115.238 254.821 110.347 253.575C84.4821 247.042 61.292 232.621 43.9954 212.312C40.0775 207.713 35.8797 202.131 32.7845 196.928C45.6187 188.733 58.9044 180.624 71.8538 172.57L86.3069 163.545C89.096 161.811 92.0843 159.885 94.9427 158.316ZM42.638 79.607C43.7731 79.8988 49.9504 83.6414 51.5657 84.5758L71.5315 96.1168L80.0481 101.014C81.5769 101.879 84.0208 103.163 85.4046 104.14C85.5997 107.624 85.4809 111.96 85.4798 115.51L85.4876 134.932C85.4882 137.46 85.6206 152.169 85.2679 153.49C84.1392 154.353 81.9648 155.496 80.6448 156.255L72.0237 161.222L42.9065 178.039C41.477 177.687 32.9771 172.494 31.0286 171.367L0.141877 153.533C-0.0893675 150.898 0.0320003 146.752 0.0305488 143.976L0.0266425 126.768V112.358C0.0268038 110.189 -0.0835198 106.337 0.145783 104.33C0.854791 103.417 6.86261 100.154 8.21805 99.3736L20.6009 92.2223C27.3674 88.3071 35.8551 83.1107 42.638 79.607ZM140.466 0.0425718C153.746 -0.364412 167.87 2.18798 180.577 5.92831C180.682 11.9863 180.578 18.3547 180.578 24.4351L180.585 66.4293C180.588 73.8963 180.497 81.6014 180.622 89.0484C177.656 86.7533 175.331 84.6246 172.158 82.4957C153.458 69.9416 127.971 70.6268 109.809 83.8902C103.719 88.3376 99.4283 93.0634 95.1624 99.4029L91.3577 97.0562C83.6125 92.1252 75.6229 87.2966 67.8235 82.4303L32.8147 60.6305C40.3059 48.1108 50.6568 36.7694 62.1028 27.735C84.4862 10.1725 112.017 0.443493 140.466 0.0425718Z" fill="url(#paint0_linear_92_622)"/>
<mask id="path-2-outside-1_92_622" maskUnits="userSpaceOnUse" x="229.694" y="48.7671" width="540" height="160" fill="black">
<rect fill="white" x="229.694" y="48.7671" width="540" height="160"/>
<path d="M272.302 206.218C259.086 206.218 248.848 202.825 241.586 196.039C234.325 189.253 230.694 179.295 230.694 166.165V91.3693C230.694 78.2395 234.325 68.2816 241.586 61.4954C248.848 54.7092 259.086 51.3161 272.302 51.3161H301.493V65.9212H272.302C265.622 65.9212 260.176 67.9127 255.964 71.8959C251.898 75.7316 249.864 80.895 249.864 87.3861V170.148C249.864 176.639 251.898 181.876 255.964 185.86C260.176 189.695 265.622 191.613 272.302 191.613H301.493V206.218H272.302Z"/>
<path d="M355.887 207.767C330.182 207.767 317.329 194.49 317.329 167.935V51.3161H336.499V171.697C336.499 178.778 338.169 184.163 341.51 187.851C344.995 191.392 349.788 193.162 355.887 193.162C361.987 193.162 366.779 191.392 370.265 187.851C373.75 184.163 375.493 178.778 375.493 171.697V51.3161H394.663V167.935C394.663 194.49 381.738 207.767 355.887 207.767Z"/>
<path d="M419.585 191.613H443.33C451.608 191.613 457.563 189.105 461.193 184.089C464.969 179.073 466.857 172.877 466.857 165.501C466.857 159.747 465.768 154.805 463.59 150.675C461.556 146.396 459.015 142.856 455.965 140.053C452.915 137.25 448.776 134.004 443.548 130.316C438.029 126.48 433.527 123.014 430.042 119.916C426.702 116.67 423.87 112.613 421.546 107.745C419.222 102.876 418.061 97.0491 418.061 90.2629C418.061 78.4608 421.546 69.0192 428.517 61.938C435.488 54.8567 445.146 51.3161 457.49 51.3161H475.135V65.9212H458.361C451.39 65.9212 446.09 68.2078 442.459 72.7811C438.828 77.3544 437.013 82.6653 437.013 88.7139C437.013 94.6149 438.683 99.4832 442.023 103.319C445.363 107.155 450.446 111.507 457.272 116.375C463.517 120.948 468.527 125.079 472.303 128.767C476.079 132.308 479.274 137.029 481.888 142.93C484.648 148.831 486.027 155.912 486.027 164.173C486.027 178.041 482.106 188.515 474.264 195.596C466.567 202.677 455.965 206.218 442.459 206.218H419.585V191.613Z"/>
<path d="M528.425 206.218V65.9212H497.927V51.3161H578.093V65.9212H547.595V206.218H528.425Z"/>
<path d="M635.647 207.767C622.141 207.767 611.83 204.3 604.714 197.367C597.598 190.285 594.04 180.475 594.04 167.935V89.599C594.04 77.0593 597.598 67.3226 604.714 60.3889C611.83 53.3077 622.141 49.7671 635.647 49.7671C649.299 49.7671 659.683 53.3077 666.799 60.3889C673.915 67.3226 677.473 77.0593 677.473 89.599V167.935C677.473 180.475 673.915 190.285 666.799 197.367C659.683 204.3 649.299 207.767 635.647 207.767ZM635.647 193.162C642.037 193.162 647.411 191.318 651.768 187.63C656.124 183.794 658.303 178.483 658.303 171.697V85.8371C658.303 79.0509 656.124 73.8138 651.768 70.1256C647.411 66.29 642.037 64.3721 635.647 64.3721C629.257 64.3721 623.884 66.29 619.527 70.1256C615.315 73.8138 613.21 79.0509 613.21 85.8371V171.697C613.21 178.483 615.315 183.794 619.527 187.63C623.884 191.318 629.257 193.162 635.647 193.162Z"/>
<path d="M702.253 191.613H725.997C734.275 191.613 740.23 189.105 743.86 184.089C747.636 179.073 749.524 172.877 749.524 165.501C749.524 159.747 748.435 154.805 746.257 150.675C744.223 146.396 741.682 142.856 738.632 140.053C735.582 137.25 731.443 134.004 726.215 130.316C720.696 126.48 716.194 123.014 712.709 119.916C709.369 116.67 706.537 112.613 704.213 107.745C701.889 102.876 700.728 97.0491 700.728 90.2629C700.728 78.4608 704.213 69.0192 711.184 61.938C718.155 54.8567 727.813 51.3161 740.157 51.3161H757.802V65.9212H741.028C734.057 65.9212 728.757 68.2078 725.126 72.7811C721.495 77.3544 719.68 82.6653 719.68 88.7139C719.68 94.6149 721.35 99.4832 724.69 103.319C728.031 107.155 733.113 111.507 739.939 116.375C746.184 120.948 751.194 125.079 754.97 128.767C758.746 132.308 761.941 137.029 764.555 142.93C767.315 148.831 768.694 155.912 768.694 164.173C768.694 178.041 764.773 188.515 756.931 195.596C749.234 202.677 738.632 206.218 725.126 206.218H702.253V191.613Z"/>
</mask>
<path d="M272.302 206.218C259.086 206.218 248.848 202.825 241.586 196.039C234.325 189.253 230.694 179.295 230.694 166.165V91.3693C230.694 78.2395 234.325 68.2816 241.586 61.4954C248.848 54.7092 259.086 51.3161 272.302 51.3161H301.493V65.9212H272.302C265.622 65.9212 260.176 67.9127 255.964 71.8959C251.898 75.7316 249.864 80.895 249.864 87.3861V170.148C249.864 176.639 251.898 181.876 255.964 185.86C260.176 189.695 265.622 191.613 272.302 191.613H301.493V206.218H272.302Z" fill="#FE8C00"/>
<path d="M355.887 207.767C330.182 207.767 317.329 194.49 317.329 167.935V51.3161H336.499V171.697C336.499 178.778 338.169 184.163 341.51 187.851C344.995 191.392 349.788 193.162 355.887 193.162C361.987 193.162 366.779 191.392 370.265 187.851C373.75 184.163 375.493 178.778 375.493 171.697V51.3161H394.663V167.935C394.663 194.49 381.738 207.767 355.887 207.767Z" fill="#FE8C00"/>
<path d="M419.585 191.613H443.33C451.608 191.613 457.563 189.105 461.193 184.089C464.969 179.073 466.857 172.877 466.857 165.501C466.857 159.747 465.768 154.805 463.59 150.675C461.556 146.396 459.015 142.856 455.965 140.053C452.915 137.25 448.776 134.004 443.548 130.316C438.029 126.48 433.527 123.014 430.042 119.916C426.702 116.67 423.87 112.613 421.546 107.745C419.222 102.876 418.061 97.0491 418.061 90.2629C418.061 78.4608 421.546 69.0192 428.517 61.938C435.488 54.8567 445.146 51.3161 457.49 51.3161H475.135V65.9212H458.361C451.39 65.9212 446.09 68.2078 442.459 72.7811C438.828 77.3544 437.013 82.6653 437.013 88.7139C437.013 94.6149 438.683 99.4832 442.023 103.319C445.363 107.155 450.446 111.507 457.272 116.375C463.517 120.948 468.527 125.079 472.303 128.767C476.079 132.308 479.274 137.029 481.888 142.93C484.648 148.831 486.027 155.912 486.027 164.173C486.027 178.041 482.106 188.515 474.264 195.596C466.567 202.677 455.965 206.218 442.459 206.218H419.585V191.613Z" fill="#FE8C00"/>
<path d="M528.425 206.218V65.9212H497.927V51.3161H578.093V65.9212H547.595V206.218H528.425Z" fill="#FE8C00"/>
<path d="M635.647 207.767C622.141 207.767 611.83 204.3 604.714 197.367C597.598 190.285 594.04 180.475 594.04 167.935V89.599C594.04 77.0593 597.598 67.3226 604.714 60.3889C611.83 53.3077 622.141 49.7671 635.647 49.7671C649.299 49.7671 659.683 53.3077 666.799 60.3889C673.915 67.3226 677.473 77.0593 677.473 89.599V167.935C677.473 180.475 673.915 190.285 666.799 197.367C659.683 204.3 649.299 207.767 635.647 207.767ZM635.647 193.162C642.037 193.162 647.411 191.318 651.768 187.63C656.124 183.794 658.303 178.483 658.303 171.697V85.8371C658.303 79.0509 656.124 73.8138 651.768 70.1256C647.411 66.29 642.037 64.3721 635.647 64.3721C629.257 64.3721 623.884 66.29 619.527 70.1256C615.315 73.8138 613.21 79.0509 613.21 85.8371V171.697C613.21 178.483 615.315 183.794 619.527 187.63C623.884 191.318 629.257 193.162 635.647 193.162Z" fill="#FE8C00"/>
<path d="M702.253 191.613H725.997C734.275 191.613 740.23 189.105 743.86 184.089C747.636 179.073 749.524 172.877 749.524 165.501C749.524 159.747 748.435 154.805 746.257 150.675C744.223 146.396 741.682 142.856 738.632 140.053C735.582 137.25 731.443 134.004 726.215 130.316C720.696 126.48 716.194 123.014 712.709 119.916C709.369 116.67 706.537 112.613 704.213 107.745C701.889 102.876 700.728 97.0491 700.728 90.2629C700.728 78.4608 704.213 69.0192 711.184 61.938C718.155 54.8567 727.813 51.3161 740.157 51.3161H757.802V65.9212H741.028C734.057 65.9212 728.757 68.2078 725.126 72.7811C721.495 77.3544 719.68 82.6653 719.68 88.7139C719.68 94.6149 721.35 99.4832 724.69 103.319C728.031 107.155 733.113 111.507 739.939 116.375C746.184 120.948 751.194 125.079 754.97 128.767C758.746 132.308 761.941 137.029 764.555 142.93C767.315 148.831 768.694 155.912 768.694 164.173C768.694 178.041 764.773 188.515 756.931 195.596C749.234 202.677 738.632 206.218 725.126 206.218H702.253V191.613Z" fill="#FE8C00"/>
<path d="M272.302 206.218C259.086 206.218 248.848 202.825 241.586 196.039C234.325 189.253 230.694 179.295 230.694 166.165V91.3693C230.694 78.2395 234.325 68.2816 241.586 61.4954C248.848 54.7092 259.086 51.3161 272.302 51.3161H301.493V65.9212H272.302C265.622 65.9212 260.176 67.9127 255.964 71.8959C251.898 75.7316 249.864 80.895 249.864 87.3861V170.148C249.864 176.639 251.898 181.876 255.964 185.86C260.176 189.695 265.622 191.613 272.302 191.613H301.493V206.218H272.302Z" stroke="#FE8C00" stroke-width="2" mask="url(#path-2-outside-1_92_622)"/>
<path d="M355.887 207.767C330.182 207.767 317.329 194.49 317.329 167.935V51.3161H336.499V171.697C336.499 178.778 338.169 184.163 341.51 187.851C344.995 191.392 349.788 193.162 355.887 193.162C361.987 193.162 366.779 191.392 370.265 187.851C373.75 184.163 375.493 178.778 375.493 171.697V51.3161H394.663V167.935C394.663 194.49 381.738 207.767 355.887 207.767Z" stroke="#FE8C00" stroke-width="2" mask="url(#path-2-outside-1_92_622)"/>
<path d="M419.585 191.613H443.33C451.608 191.613 457.563 189.105 461.193 184.089C464.969 179.073 466.857 172.877 466.857 165.501C466.857 159.747 465.768 154.805 463.59 150.675C461.556 146.396 459.015 142.856 455.965 140.053C452.915 137.25 448.776 134.004 443.548 130.316C438.029 126.48 433.527 123.014 430.042 119.916C426.702 116.67 423.87 112.613 421.546 107.745C419.222 102.876 418.061 97.0491 418.061 90.2629C418.061 78.4608 421.546 69.0192 428.517 61.938C435.488 54.8567 445.146 51.3161 457.49 51.3161H475.135V65.9212H458.361C451.39 65.9212 446.09 68.2078 442.459 72.7811C438.828 77.3544 437.013 82.6653 437.013 88.7139C437.013 94.6149 438.683 99.4832 442.023 103.319C445.363 107.155 450.446 111.507 457.272 116.375C463.517 120.948 468.527 125.079 472.303 128.767C476.079 132.308 479.274 137.029 481.888 142.93C484.648 148.831 486.027 155.912 486.027 164.173C486.027 178.041 482.106 188.515 474.264 195.596C466.567 202.677 455.965 206.218 442.459 206.218H419.585V191.613Z" stroke="#FE8C00" stroke-width="2" mask="url(#path-2-outside-1_92_622)"/>
<path d="M528.425 206.218V65.9212H497.927V51.3161H578.093V65.9212H547.595V206.218H528.425Z" stroke="#FE8C00" stroke-width="2" mask="url(#path-2-outside-1_92_622)"/>
<path d="M635.647 207.767C622.141 207.767 611.83 204.3 604.714 197.367C597.598 190.285 594.04 180.475 594.04 167.935V89.599C594.04 77.0593 597.598 67.3226 604.714 60.3889C611.83 53.3077 622.141 49.7671 635.647 49.7671C649.299 49.7671 659.683 53.3077 666.799 60.3889C673.915 67.3226 677.473 77.0593 677.473 89.599V167.935C677.473 180.475 673.915 190.285 666.799 197.367C659.683 204.3 649.299 207.767 635.647 207.767ZM635.647 193.162C642.037 193.162 647.411 191.318 651.768 187.63C656.124 183.794 658.303 178.483 658.303 171.697V85.8371C658.303 79.0509 656.124 73.8138 651.768 70.1256C647.411 66.29 642.037 64.3721 635.647 64.3721C629.257 64.3721 623.884 66.29 619.527 70.1256C615.315 73.8138 613.21 79.0509 613.21 85.8371V171.697C613.21 178.483 615.315 183.794 619.527 187.63C623.884 191.318 629.257 193.162 635.647 193.162Z" stroke="#FE8C00" stroke-width="2" mask="url(#path-2-outside-1_92_622)"/>
<path d="M702.253 191.613H725.997C734.275 191.613 740.23 189.105 743.86 184.089C747.636 179.073 749.524 172.877 749.524 165.501C749.524 159.747 748.435 154.805 746.257 150.675C744.223 146.396 741.682 142.856 738.632 140.053C735.582 137.25 731.443 134.004 726.215 130.316C720.696 126.48 716.194 123.014 712.709 119.916C709.369 116.67 706.537 112.613 704.213 107.745C701.889 102.876 700.728 97.0491 700.728 90.2629C700.728 78.4608 704.213 69.0192 711.184 61.938C718.155 54.8567 727.813 51.3161 740.157 51.3161H757.802V65.9212H741.028C734.057 65.9212 728.757 68.2078 725.126 72.7811C721.495 77.3544 719.68 82.6653 719.68 88.7139C719.68 94.6149 721.35 99.4832 724.69 103.319C728.031 107.155 733.113 111.507 739.939 116.375C746.184 120.948 751.194 125.079 754.97 128.767C758.746 132.308 761.941 137.029 764.555 142.93C767.315 148.831 768.694 155.912 768.694 164.173C768.694 178.041 764.773 188.515 756.931 195.596C749.234 202.677 738.632 206.218 725.126 206.218H702.253V191.613Z" stroke="#FE8C00" stroke-width="2" mask="url(#path-2-outside-1_92_622)"/>
<defs>
<linearGradient id="paint0_linear_92_622" x1="90.3473" y1="0" x2="90.3473" y2="257.534" gradientUnits="userSpaceOnUse">
<stop stop-color="#F83700"/>
<stop offset="1" stop-color="#FE8C00"/>
</linearGradient>
</defs>
</svg>
