<svg viewBox="-38 0 258 258" fill="none" xmlns="http://www.w3.org/2000/svg"><path d="M94.9427 158.316C95.5842 158.534 96.3132 159.808 96.719 160.395C98.659 163.2 100.848 165.879 103.287 168.262C113.736 178.529 127.836 184.225 142.484 184.097C156.604 183.883 170.792 178.367 180.695 168.184C180.495 171.668 180.592 176.129 180.59 179.691L180.583 199.337C180.58 216.64 180.419 234.263 180.659 251.546C178.463 252.446 174.459 253.425 172.113 253.976C160.066 256.903 147.654 258.034 135.278 257.333C134.592 257.218 133.377 257.221 132.603 257.168C130.827 257.042 129.053 256.879 127.283 256.677C122.333 256.124 115.238 254.821 110.347 253.575C84.4821 247.042 61.292 232.621 43.9954 212.312C40.0775 207.713 35.8797 202.131 32.7845 196.928C45.6187 188.733 58.9044 180.624 71.8538 172.57L86.3069 163.545C89.096 161.811 92.0843 159.885 94.9427 158.316ZM42.638 79.607C43.7731 79.8988 49.9504 83.6414 51.5657 84.5758L71.5315 96.1168L80.0481 101.014C81.5769 101.879 84.0208 103.163 85.4046 104.14C85.5997 107.624 85.4809 111.96 85.4798 115.51L85.4876 134.932C85.4882 137.46 85.6206 152.169 85.2679 153.49C84.1392 154.353 81.9648 155.496 80.6448 156.255L72.0237 161.222L42.9065 178.039C41.477 177.687 32.9771 172.494 31.0286 171.367L0.141877 153.533C-0.0893675 150.898 0.0320003 146.752 0.0305488 143.976L0.0266425 126.768V112.358C0.0268038 110.189 -0.0835198 106.337 0.145783 104.33C0.854791 103.417 6.86261 100.154 8.21805 99.3736L20.6009 92.2223C27.3674 88.3071 35.8551 83.1107 42.638 79.607ZM140.466 0.0425718C153.746 -0.364412 167.87 2.18798 180.577 5.92831C180.682 11.9863 180.578 18.3547 180.578 24.4351L180.585 66.4293C180.588 73.8963 180.497 81.6014 180.622 89.0484C177.656 86.7533 175.331 84.6246 172.158 82.4957C153.458 69.9416 127.971 70.6268 109.809 83.8902C103.719 88.3376 99.4283 93.0634 95.1624 99.4029L91.3577 97.0562C83.6125 92.1252 75.6229 87.2966 67.8235 82.4303L32.8147 60.6305C40.3059 48.1108 50.6568 36.7694 62.1028 27.735C84.4862 10.1725 112.017 0.443493 140.466 0.0425718Z" fill="url(#paint0_linear_92_622)"/><defs><linearGradient id="paint0_linear_92_622" x1="90.3473" y1="0" x2="90.3473" y2="257.534" gradientUnits="userSpaceOnUse">
<stop stop-color="#F83700"/>
<stop offset="1" stop-color="#FE8C00"/>
</linearGradient></defs></svg>
