<svg xmlns="http://www.w3.org/2000/svg" viewBox="0 0 1460 1346" width="1460" height="1346" font-family="&#39;IBM Plex Sans&#39;, -apple-system, Helvetica, Arial, sans-serif">
  

  <defs>
    <marker id="ah" viewBox="0 0 10 10" refX="8.5" refY="5" markerWidth="7" markerHeight="7" orient="auto-start-reverse"><path d="M0,0 L10,5 L0,10 z" fill="#2a2d34"></path></marker>
    <marker id="aht" viewBox="0 0 10 10" refX="8.5" refY="5" markerWidth="6" markerHeight="6" orient="auto-start-reverse"><path d="M0,0 L10,5 L0,10 z" fill="#2a2d34"></path></marker>
    <marker id="ahg" viewBox="0 0 10 10" refX="8.5" refY="5" markerWidth="5" markerHeight="5" orient="auto-start-reverse"><path d="M0,0 L10,5 L0,10 z" fill="#b4b9c0"></path></marker>
  </defs>

  
  <rect x="0" y="0" width="1460" height="1346" fill="#f4f3ef"></rect>

  
  <rect x="300" y="176" width="780" height="824" rx="16" fill="#f4f8fd" stroke="#3a63a8" stroke-width="2"></rect>
  <rect x="300" y="1050" width="780" height="280" rx="16" fill="#fafafa" stroke="#8b9098" stroke-width="2"></rect>

  
  <path d="M300,216 V190 Q300,176 314,176 H1066 Q1080,176 1080,190 V216 Z" fill="#e6eef9"></path>
  <line x1="300" y1="216" x2="1080" y2="216" stroke="#3a63a8" stroke-width="1.5"></line>
  <text class="m" x="318" y="201" font-size="12" font-weight="600" fill="#274a86" letter-spacing="0.5">CUSTOS SERVER</text>
  <text x="432" y="201" font-size="12.5" fill="#5b6b86">single Go binary · shared DB handle, event bus, HTTP router &amp; identity context</text>

  
  <path d="M300,1088 V1064 Q300,1050 314,1050 H1066 Q1080,1050 1080,1064 V1088 Z" fill="#eef0f2"></path>
  <line x1="300" y1="1088" x2="1080" y2="1088" stroke="#8b9098" stroke-width="1.5"></line>
  <text class="m" x="352" y="1073" font-size="12" font-weight="600" fill="#4c5159" letter-spacing="0.5">MARIADB</text>
  <text x="424" y="1073" font-size="12.5" fill="#6b7078">single instance · core service owns the core schema · AMIE-Processor owns its own schema</text>

  
  <rect x="332" y="348" width="716" height="200" rx="13" fill="#eaf1fc" stroke="#b3c1da" stroke-width="1.5"></rect>

  
  <text class="m" x="40" y="216" font-size="11" fill="#9a9ea5" letter-spacing="1.3">CLIENTS</text>
  <text class="m" x="1150" y="216" font-size="11" fill="#9a9ea5" letter-spacing="1.3">EXTERNAL SYSTEMS</text>

  
  <rect x="344" y="338" width="192" height="16" rx="5" fill="#eaf1fc"></rect>
  <text class="m" x="350" y="349" font-size="10" fill="#5b6276" letter-spacing="0.9">SERVICE + CONNECTOR HANDLERS</text>
  <text class="m" x="348" y="684" font-size="10" fill="#8a8e95" letter-spacing="0.7">BUS SUBSCRIBERS</text>

  
  <rect x="40" y="232" width="200" height="70" rx="11" fill="#fff" stroke="#9298a0" stroke-width="1.5"></rect>
  <text x="53" y="256" font-size="13.5" font-weight="600" fill="#23262c">Science gateway portal</text>
  <text x="53" y="274" font-size="11" fill="#6b6f76">web UI · calls REST / HTTPS</text>

  <rect x="40" y="322" width="200" height="70" rx="11" fill="#fff" stroke="#9298a0" stroke-width="1.5"></rect>
  <text x="53" y="346" font-size="13.5" font-weight="600" fill="#23262c">Admin CLI</text>
  <text x="53" y="364" font-size="11" fill="#6b6f76">operator tooling · REST</text>

  <rect x="40" y="412" width="200" height="70" rx="11" fill="#fff" stroke="#9298a0" stroke-width="1.5"></rect>
  <text x="53" y="436" font-size="13.5" font-weight="600" fill="#23262c">Other consumers</text>
  <text x="53" y="454" font-size="11" fill="#6b6f76">downstream gateways / services</text>

  <rect x="40" y="520" width="200" height="78" rx="11" fill="#fff" stroke="#9298a0" stroke-width="1.5" stroke-dasharray="5 4"></rect>
  <text x="53" y="544" font-size="13.5" font-weight="600" fill="#23262c">Extensions</text>
  <text x="53" y="561" font-size="10.5" fill="#6b6f76">SSH cert signer · PAM module</text>
  <text x="53" y="576" font-size="10.5" fill="#6b6f76">separate processes — call via REST</text>

  
  <rect x="332" y="238" width="716" height="76" rx="11" fill="#eef3fb" stroke="#3a63a8" stroke-width="1.5"></rect>
  <text x="347" y="260" font-size="14.5" font-weight="600" fill="#23262c">Identity middleware + HTTP router <tspan font-size="11" font-weight="400" fill="#6b7384">— entry point for every request</tspan></text>
  <text x="347" y="283" font-size="11.5" fill="#5b6b86">verifies JWT against OIDC issuer · resolves caller from <tspan class="m" font-size="10.5" fill="#5b6b86">user_identities</tspan> by <tspan class="m" font-size="10.5" fill="#5b6b86">sub</tspan> · dispatches <tspan class="m" font-size="10.5" fill="#274a86">Public</tspan> / <tspan class="m" font-size="10.5" fill="#274a86">RequireAuth</tspan> /</text>
  <text x="347" y="299" font-size="11.5" fill="#5b6b86"><tspan class="m" font-size="10.5" fill="#274a86">RequirePrivilege</tspan></text>

  
  <rect x="348" y="388" width="288" height="144" rx="11" fill="#fff" stroke="#3a63a8" stroke-width="1.5"></rect>
  <text x="362" y="412" font-size="15" font-weight="600" fill="#23262c">Core service</text>
  <text class="m" x="622" y="412" font-size="10" fill="#274a86" text-anchor="end">pkg/service.Service</text>
  <text x="362" y="433" font-size="11.5" fill="#5b6b86">domain mutations + audit + event publish · owns</text>
  <text x="362" y="449" font-size="11.5" fill="#5b6b86">transactions</text>

  
  <rect x="676" y="388" width="354" height="62" rx="10" fill="#fbf4e7" stroke="#b07d2a" stroke-width="1.5"></rect>
  <text x="689" y="408" font-size="13.5" font-weight="600" fill="#23262c">AMIE-Processor</text>
  <rect x="952" y="397" width="65" height="17" rx="8.5" fill="none" stroke="#d8b878"></rect>
  <text class="m" x="984.5" y="409" font-size="9.5" fill="#8a5a17" text-anchor="middle">ACCESS-CI</text>
  <text x="689" y="424" font-size="10.5" fill="#7a6a4a">HTTP routes · AMIE REST client · poller + processor goroutines</text>

  
  <rect x="676" y="466" width="354" height="62" rx="10" fill="#fbf4e7" stroke="#b07d2a" stroke-width="1.5"></rect>
  <text x="689" y="486" font-size="13.5" font-weight="600" fill="#23262c">TempAccount</text>
  <text x="689" y="502" font-size="10.5" fill="#7a6a4a">HTTP routes only · no external system, no workers</text>

  
  <rect x="332" y="592" width="716" height="72" rx="11" fill="#e8eefb" stroke="#3a63a8" stroke-width="1.5"></rect>
  <text x="347" y="615" font-size="15" font-weight="600" fill="#23262c">Event bus</text>
  <text class="m" x="1033" y="615" font-size="10.5" fill="#274a86" text-anchor="end">pkg/events.Bus</text>
  <text x="347" y="631" font-size="11.5" fill="#5b6b86">in-process pub/sub · publish happens after the service transaction commits · subscribers run async in their own goroutines</text>

  
  <rect x="348" y="700" width="320" height="80" rx="11" fill="#fbf4e7" stroke="#b07d2a" stroke-width="1.5"></rect>
  <text x="361" y="721" font-size="13.5" font-weight="600" fill="#23262c">COmanage Identity-Provisioner</text>
  <text x="361" y="736" font-size="10.5" fill="#7a6a4a">event subscriber · REST client · no own tables</text>

  <rect x="348" y="800" width="320" height="80" rx="11" fill="#fbf4e7" stroke="#b07d2a" stroke-width="1.5"></rect>
  <text x="361" y="821" font-size="13.5" font-weight="600" fill="#23262c">SLURM Association-Mapper</text>
  <text x="361" y="836" font-size="10.5" fill="#7a6a4a">event subscriber · SLURM REST client</text>

  <rect x="348" y="900" width="320" height="80" rx="11" fill="#fbf4e7" stroke="#b07d2a" stroke-width="1.5"></rect>
  <text x="361" y="921" font-size="13.5" font-weight="600" fill="#23262c">SLURM Usage-Monitor</text>
  <text x="361" y="936" font-size="10.5" fill="#7a6a4a">background poller · SLURM REST client · publishes events from polling</text>

  
  <rect x="1150" y="238" width="270" height="76" rx="11" fill="#fff" stroke="#9298a0" stroke-width="1.5"></rect>
  <text x="1163" y="260" font-size="13.5" font-weight="600" fill="#23262c">OIDC issuer</text>
  <text x="1163" y="275" font-size="11" fill="#6b6f76">CILogon / Keycloak · serves JWKS (keys cached)</text>

  <rect x="1150" y="388" width="270" height="76" rx="11" fill="#fff" stroke="#9298a0" stroke-width="1.5"></rect>
  <text x="1163" y="410" font-size="13.5" font-weight="600" fill="#23262c">ACCESS-CI AMIE REST API</text>
  <text x="1163" y="425" font-size="11" fill="#6b6f76">cloud-hosted · AMIE-Processor polls it</text>

  <rect x="1150" y="700" width="270" height="80" rx="11" fill="#fff" stroke="#9298a0" stroke-width="1.5"></rect>
  <text x="1163" y="722" font-size="13.5" font-weight="600" fill="#23262c">COmanage registry</text>
  <text x="1163" y="737" font-size="11" fill="#6b6f76">CILogon-hosted · REST</text>

  <rect x="1150" y="812" width="270" height="140" rx="11" fill="#fff" stroke="#9298a0" stroke-width="1.5"></rect>
  <text x="1163" y="835" font-size="13.5" font-weight="600" fill="#23262c">SLURM controller</text>
  <text x="1163" y="851" font-size="11" fill="#6b6f76">one per HPC site · REST via <tspan class="m" font-size="10.5">slurmrestd</tspan> ·</text>
  <text x="1163" y="867" font-size="11" fill="#6b6f76">shared by both SLURM connectors</text>

  
  <rect x="332" y="1110" width="486" height="196" rx="11" fill="#fff" stroke="#9298a0" stroke-width="1.5"></rect>
  <text x="346" y="1133" font-size="14" font-weight="600" fill="#23262c">Core schema</text>
  <text class="m" x="804" y="1133" font-size="10" fill="#7a7f86" text-anchor="end">schema_migrations</text>
  <rect x="346" y="1152" width="74" height="24" rx="7" fill="#f7f8fa" stroke="#d2d5da"></rect>
  <text x="383" y="1168" font-size="12" fill="#3a3e45" text-anchor="middle">Identity</text>
  <rect x="428" y="1152" width="82" height="24" rx="7" fill="#f7f8fa" stroke="#d2d5da"></rect>
  <text x="469" y="1168" font-size="12" fill="#3a3e45" text-anchor="middle">Projects</text>
  <rect x="518" y="1152" width="78" height="24" rx="7" fill="#f7f8fa" stroke="#d2d5da"></rect>
  <text x="557" y="1168" font-size="12" fill="#3a3e45" text-anchor="middle">Clusters</text>
  <rect x="604" y="1152" width="98" height="24" rx="7" fill="#f7f8fa" stroke="#d2d5da"></rect>
  <text x="653" y="1168" font-size="12" fill="#3a3e45" text-anchor="middle">Allocations</text>
  <rect x="346" y="1187" width="446" height="26" rx="7" fill="#eef3fb" stroke="#2a2d34" stroke-width="2"></rect>
  <text class="m" x="357" y="1204" font-size="11.5" font-weight="600" fill="#1c1f25">audit_events</text>
  <text x="445" y="1204" font-size="10" fill="#5b6276">central cross-cutting table · written by core + every connector</text>

  <rect x="852" y="1110" width="196" height="196" rx="11" fill="#fbf4e7" stroke="#b07d2a" stroke-width="1.5"></rect>
  <text x="865" y="1133" font-size="14" font-weight="600" fill="#23262c">AMIE schema</text>
  <text x="865" y="1152" font-size="11" fill="#8a7a55">per-connector pattern · owns its</text>
  <text x="865" y="1167" font-size="11" fill="#8a7a55">own tables and migrations</text>

  
  <g fill="none">
    
    <polyline points="240,267 300,267" stroke="#2a2d34" stroke-width="1.8"></polyline>
    <polyline points="240,357 300,357" stroke="#2a2d34" stroke-width="1.8"></polyline>
    <polyline points="240,447 300,447" stroke="#2a2d34" stroke-width="1.8"></polyline>
    <polyline points="240,559 300,559" stroke="#2a2d34" stroke-width="1.8"></polyline>
    <polyline points="300,267 300,559" stroke="#2a2d34" stroke-width="1.8"></polyline>
    <polyline points="300,290 332,290" stroke="#2a2d34" stroke-width="1.8" marker-end="url(#ah)"></polyline>
    
    <polyline points="1048,276 1150,276" stroke="#b4b9c0" stroke-width="1.4" stroke-dasharray="0.5 4.5" stroke-linecap="round" marker-end="url(#ahg)"></polyline>
    
    <polyline points="690,314 690,348" stroke="#2a2d34" stroke-width="1.8" marker-end="url(#ah)"></polyline>
    
    <polyline points="676,408 636,408" stroke="#5b6276" stroke-width="1.2" marker-end="url(#aht)"></polyline>
    <polyline points="676,497 636,497" stroke="#5b6276" stroke-width="1.2" marker-end="url(#aht)"></polyline>
    
    <polyline points="492,532 492,592" stroke="#2a2d34" stroke-width="1.8" marker-end="url(#ah)"></polyline>
    
    <polyline points="470,664 470,700" stroke="#2a2d34" stroke-width="1.8" stroke-dasharray="7 5" marker-end="url(#ah)"></polyline>
    <polyline points="700,664 700,820 668,820" stroke="#2a2d34" stroke-width="1.8" stroke-dasharray="7 5" marker-end="url(#ah)"></polyline>
    <polyline points="668,920 740,920 740,664" stroke="#2a2d34" stroke-width="1.8" stroke-dasharray="7 5" marker-end="url(#ah)"></polyline>
    
    <polyline points="1030,419 1150,419" stroke="#2a2d34" stroke-width="1.8" marker-start="url(#ah)" marker-end="url(#ah)"></polyline>
    <polyline points="668,740 1150,740" stroke="#2a2d34" stroke-width="1.8" marker-end="url(#ah)"></polyline>
    <polyline points="668,856 1150,856" stroke="#2a2d34" stroke-width="1.8" marker-end="url(#ah)"></polyline>
    <polyline points="668,956 1130,956 1130,910 1150,910" stroke="#2a2d34" stroke-width="1.8" marker-end="url(#ah)"></polyline>
    
    <polyline points="382,534 382,560 312,560 312,1099 562,1099 562,1108" stroke="#2a2d34" stroke-width="1.5"></polyline>
    <polyline points="378,530 378,556 308,556 308,1097 558,1097 558,1108" stroke="#2a2d34" stroke-width="1.5"></polyline>
    
    <polyline points="1032,440 1064,440 1064,1098 947,1098 947,1108" stroke="#2a2d34" stroke-width="1.5"></polyline>
    <polyline points="1028,436 1060,436 1060,1094 943,1094 943,1108" stroke="#2a2d34" stroke-width="1.5"></polyline>
  </g>
  <path d="M554,1103 L566,1103 L560,1113 z" fill="#2a2d34"></path>
  <path d="M939,1103 L951,1103 L945,1113 z" fill="#2a2d34"></path>

  
  <g class="m" font-size="10" text-anchor="middle">
    <rect x="249" y="275" width="74" height="30" rx="5" fill="#f4f3ef"></rect>
    <text x="286" y="288" fill="#3a3e45">HTTPS ·</text>
    <text x="286" y="302" fill="#3a3e45">Bearer JWT</text>
    <rect x="1081" y="255.5" width="36" height="17" rx="5" fill="#f4f8fd"></rect>
    <text x="1099" y="267.5" fill="#8a8e95">JWKS</text>
    <rect x="660" y="322.5" width="60" height="17" rx="5" fill="#f4f8fd"></rect>
    <text x="690" y="334.5" fill="#3a3e45">dispatch</text>
    <rect x="639.5" y="443.5" width="33" height="17" rx="5" fill="#eaf1fc"></rect>
    <text x="656" y="455" font-size="9.5" fill="#5b6276">call</text>
    <rect x="465" y="553.5" width="54" height="17" rx="5" fill="#f4f8fd"></rect>
    <text x="492" y="565" fill="#274a86">publish</text>
    <rect x="440" y="674.5" width="60" height="17" rx="5" fill="#f4f8fd"></rect>
    <text x="470" y="686" fill="#8a5a17">dispatch</text>
    <rect x="737" y="791.5" width="54" height="17" rx="5" fill="#f4f8fd"></rect>
    <text x="764" y="803" fill="#8a5a17">publish</text>
    <rect x="1048" y="397.5" width="84" height="17" rx="5" fill="#f4f8fd"></rect>
    <text x="1090" y="409" fill="#3a3e45">poll + reply</text>
    <rect x="887" y="719.5" width="36" height="17" rx="5" fill="#f4f8fd"></rect>
    <text x="905" y="731" fill="#3a3e45">REST</text>
    <rect x="887" y="835.5" width="36" height="17" rx="5" fill="#f4f8fd"></rect>
    <text x="905" y="847" fill="#3a3e45">REST</text>
    <rect x="861" y="935.5" width="78" height="17" rx="5" fill="#f4f8fd"></rect>
    <text x="900" y="947" fill="#3a3e45">REST · poll</text>
    <rect x="303" y="851.5" width="30" height="17" rx="5" fill="#f4f8fd"></rect>
    <text x="318" y="863" fill="#3a3e45">SQL</text>
    <rect x="1063" y="551.5" width="30" height="17" rx="5" fill="#f4f8fd"></rect>
    <text x="1078" y="563" fill="#3a3e45">SQL</text>
  </g>

  
  <g>
    <rect x="1144" y="30" width="276" height="126" rx="10" fill="#fbfaf7" stroke="#d3d0c8"></rect>
    <text class="m" x="1160" y="50" font-size="9.5" fill="#9a9ea5" letter-spacing="0.95">EDGE TYPES</text>

    <line x1="1160" y1="72" x2="1192" y2="72" stroke="#2a2d34" stroke-width="1.8"></line>
    <path d="M1192,68 L1203,72 L1192,76 z" fill="#2a2d34"></path>
    <text x="1212" y="75.5" font-size="11.5" fill="#4a4e55">sync — HTTP / in-process call</text>

    <line x1="1160" y1="92.5" x2="1193" y2="92.5" stroke="#2a2d34" stroke-width="1.4"></line>
    <line x1="1160" y1="97.5" x2="1193" y2="97.5" stroke="#2a2d34" stroke-width="1.4"></line>
    <path d="M1191,90 L1202,95 L1191,100 z" fill="#2a2d34"></path>
    <text x="1212" y="98.5" font-size="11.5" fill="#4a4e55">SQL — transactional write</text>

    <line x1="1160" y1="118" x2="1192" y2="118" stroke="#2a2d34" stroke-width="1.8" stroke-dasharray="7 5"></line>
    <path d="M1192,114 L1203,118 L1192,122 z" fill="#2a2d34"></path>
    <text x="1212" y="121.5" font-size="11.5" fill="#4a4e55">async — event-bus dispatch</text>

    <line x1="1160" y1="141" x2="1193" y2="141" stroke="#b4b9c0" stroke-width="1.4" stroke-dasharray="0.5 4.5" stroke-linecap="round"></line>
    <path d="M1192,137.5 L1201,141 L1192,144.5 z" fill="#b4b9c0"></path>
    <text x="1212" y="144.5" font-size="11.5" fill="#4a4e55">occasional — JWKS</text>
  </g>
</svg>