<svg width="44" height="44" viewBox="0 0 44 44" fill="none" xmlns="http://www.w3.org/2000/svg">
<path d="M8.4177 10.0712L8.69522 12.6358C8.93193 12.3632 9.17843 12.0971 9.43636 11.8392C12.205 9.07048 15.8863 7.54574 19.801 7.54574C20.8588 7.54574 21.8987 7.65839 22.9076 7.8755L25.2894 6.75399L24.2495 4.54525C22.8113 4.1861 21.3208 4 19.801 4C14.9378 4 10.3669 5.89368 6.92888 9.33168C6.60565 9.65491 6.29548 9.98956 6 10.3324L8.4177 10.0712Z" fill="#3184C6"/>
<path d="M30.1649 11.8397C32.4259 14.1007 33.8576 16.9706 34.3065 20.0804L36.2361 21.9937L37.9061 20.309C37.48 16.1641 35.6598 12.3213 32.6724 9.33382C30.8669 7.5283 28.7463 6.14885 26.4363 5.24609L27.5268 7.56095L25.2969 8.61063C27.0975 9.33545 28.7512 10.4243 30.1649 11.8397Z" fill="#3184C6"/>
<path d="M24.1027 38.2743L25.0658 35.8909C23.4089 36.5275 21.6295 36.8606 19.8011 36.8606C16.0203 36.8606 12.4582 35.4387 9.72546 32.8479L6.97473 32.541L6.7168 34.8559C6.78699 34.9293 6.85719 35.0012 6.92902 35.073C10.367 38.511 14.938 40.4047 19.8011 40.4047C22.0833 40.4047 24.3018 39.9867 26.3686 39.1885L24.1027 38.2743Z" fill="#3184C6"/>
<path d="M36.2485 24.3696L34.4544 22.5918C34.3564 26.3612 32.8431 29.8906 30.1659 32.5679C29.3006 33.4331 28.3473 34.1759 27.3253 34.7897L26.292 37.3461L28.4616 38.2244C29.9912 37.3951 31.4082 36.3405 32.6733 35.0754C36.0183 31.7304 37.9005 27.3146 38.0001 22.6016L36.2485 24.3696Z" fill="#3184C6"/>
<path d="M30.9031 25.4414C29.4796 25.4414 26.7027 25.6814 23.1309 27.1588C28.1393 26.127 32.1356 26.4813 32.1356 26.4813L31.5675 25.461C31.3977 25.4496 31.1757 25.4414 30.9031 25.4414Z" fill="#3184C6"/>
<path d="M14.037 26.6071C12.5514 25.9443 11.7401 25.2832 11.7058 25.2554C11.6372 25.1983 11.5899 25.1199 11.5735 25.0334L10.4635 19.3899C9.98841 19.1989 9.72559 19.0732 9.72559 19.0732L11.1148 26.914C11.1148 26.914 14.6459 28.2347 19.2478 27.8935C16.9885 27.7303 15.2009 27.1263 14.037 26.6071Z" fill="#3184C6"/>
<path d="M15.1658 25.8319C13.6133 24.9667 12.655 24.157 12.6158 24.1227C12.5505 24.0672 12.5064 23.9921 12.4885 23.9089L11.2886 18.1397C10.7466 17.6826 10.4561 17.3643 10.4561 17.3643L11.9498 24.9569C11.9498 24.9569 14.7168 27.2342 19.4494 27.5215C17.7304 27.1216 16.2301 26.4229 15.1658 25.8319Z" fill="#A9D6F0"/>
<path d="M31.4048 23.752C31.2595 23.7552 29.9013 23.796 28.1089 24.2629C26.576 24.6629 24.4358 25.4579 22.5029 27.0104C28.1742 24.5355 32.0219 25.1183 32.0219 25.1183L31.4048 23.752Z" fill="#A9D6F0"/>
<path d="M13.981 23.5867C13.9157 23.5328 13.8716 23.4593 13.852 23.3777L12.5591 17.6853C11.7869 16.9343 11.3086 16.3613 11.3086 16.3613L12.8643 23.8332C12.8643 23.8332 15.7424 26.2852 19.5738 27.1634C16.8655 25.9815 14.1214 23.7026 13.981 23.5867Z" fill="#A9D6F0"/>
<path d="M30.1806 21.6908C30.2295 21.7969 30.2279 21.9194 30.1757 22.0255C30.1234 22.1316 30.0255 22.2051 29.9112 22.2295C29.8982 22.2328 28.6052 22.5103 26.9548 23.3102C25.7615 23.8898 24.1812 24.8448 22.792 26.3058C26.7867 23.4049 31.418 23.3658 31.418 23.3658L28.3685 16.6514C28.3685 16.6514 28.1824 16.6628 27.8592 16.702L30.1806 21.6908Z" fill="#A9D6F0"/>
<path d="M18.4105 21.0676C17.8424 20.9762 17.2596 20.7003 16.6915 20.3183C16.6719 20.3117 16.6507 20.3052 16.6311 20.3003L16.6637 20.2987C14.4762 18.8099 12.5205 15.7686 12.5205 15.7686L14.2281 23.291C14.2281 23.291 17.7101 26.2017 20.6617 27.1649C21.2804 24.1872 20.2617 22.2005 18.4105 21.0676Z" fill="#A9D6F0"/>
<path d="M26.9271 15.6172C26.9271 15.6172 22.9847 16.1984 19.0635 20.4852C21.1759 21.1513 22.761 23.28 22.6157 25.9312C25.7485 22.707 29.8313 21.8533 29.8313 21.8533L26.9271 15.6172Z" fill="#A9D6F0"/>
</svg>
